<?xml version="1.0" standalone="no"?>
<!DOCTYPE svg PUBLIC "-//W3C//DTD SVG 20010904//EN"
 "http://www.w3.org/TR/2001/REC-SVG-20010904/DTD/svg10.dtd">
<svg version="1.0" xmlns="http://www.w3.org/2000/svg"
 width="1200.000000pt" height="1200.000000pt" viewBox="0 0 1200.000000 1200.000000"
 preserveAspectRatio="xMidYMid meet">

<g transform="translate(0.000000,1200.000000) scale(0.100000,-0.100000)"
fill="#000000" stroke="none">
<path d="M0 6000 l0 -6000 6000 0 6000 0 0 6000 0 6000 -6000 0 -6000 0 0
-6000z m8589 2581 l2579 -2578 -2584 -2584 -2584 -2584 -470 470 c-817 817
-4685 4686 -4690 4691 -5 6 5151 5164 5162 5164 5 0 1168 -1160 2587 -2579z"/>
<path d="M3505 8490 l-2489 -2489 26 -28 c98 -102 4950 -4949 4956 -4951 4 -1
1128 1118 2497 2488 l2490 2490 -2490 2490 c-1369 1370 -2492 2490 -2495 2490
-3 0 -1125 -1120 -2495 -2490z m2546 2145 c93 -22 123 -176 47 -240 -112 -94
-270 0 -238 141 14 63 94 121 150 108 8 -2 27 -6 41 -9z m-2532 -3422 c0 -82
0 -156 0 -165 1 -15 10 -18 51 -18 l50 0 0 55 0 55 40 0 40 0 0 50 c0 43 3 50
20 50 18 0 20 7 20 60 l0 60 50 0 c44 0 50 -3 56 -24 10 -42 1 -71 -24 -74
-20 -3 -22 -7 -16 -38 3 -18 3 -45 0 -59 -6 -22 -12 -25 -47 -25 -39 0 -41 -1
-35 -25 11 -45 -2 -74 -36 -77 -30 -3 -31 -4 -31 -58 0 -54 1 -55 32 -58 32
-3 33 -6 35 -72 1 -33 3 -35 41 -40 l40 -5 -1 -52 c-2 -46 1 -52 20 -55 23 -3
32 -33 22 -74 -6 -21 -12 -24 -56 -24 l-50 0 0 55 c0 48 -2 55 -20 55 -18 0
-20 7 -20 55 l0 55 -40 0 -40 0 0 55 0 55 -50 0 c-45 0 -50 -2 -51 -22 0 -13
0 -87 0 -165 l0 -143 -50 0 c-32 0 -50 4 -51 13 -4 32 -5 714 -1 730 3 13 15
17 53 17 l49 0 0 -147z m761 125 c1 -13 2 -160 3 -328 l2 -305 51 -3 51 -3 2
-49 1 -50 -160 0 -160 0 0 49 0 50 53 3 52 3 2 278 1 277 -38 0 c-44 0 -56 19
-45 70 l7 30 89 0 c85 0 89 -1 89 -22z m1049 -125 c0 -82 0 -156 0 -165 1 -12
9 -18 26 -18 28 0 42 -33 31 -75 -5 -18 -13 -25 -31 -25 -28 0 -26 8 -26 -132
l0 -88 -27 0 c-26 0 -27 -2 -27 -52 0 -47 -2 -53 -22 -56 -14 -2 -24 2 -25 10
-4 35 -5 715 -1 731 3 13 15 17 53 17 l49 0 0 -147z m600 0 c0 -82 0 -156 0
-165 1 -11 9 -18 21 -18 19 0 21 -6 19 -50 -2 -41 -6 -50 -21 -50 -20 0 -19 6
-19 -207 l0 -123 -49 0 c-28 0 -51 3 -52 8 -4 19 -5 719 -1 735 3 13 15 17 53
17 l49 0 0 -147z m-1200 -220 c-1 -194 -2 -183 21 -183 18 0 20 -7 20 -55 l0
-55 71 0 70 0 -3 -47 -3 -48 -107 -3 -108 -3 0 56 c0 54 0 55 -29 55 -20 0
-31 6 -34 18 -3 9 -5 98 -5 197 0 99 2 188 5 198 3 13 15 17 53 17 l50 0 -1
-147z m324 130 c5 -16 3 -496 -1 -515 -1 -5 -24 -8 -52 -8 l-50 0 0 55 c0 48
-2 55 -20 55 -17 0 -20 7 -20 50 0 43 3 50 20 50 19 0 20 7 20 165 l0 165 49
0 c39 0 51 -4 54 -17z m492 -41 c0 -50 1 -52 28 -52 23 0 28 -4 27 -22 -6 -70
-1 -87 28 -90 29 -3 39 -29 28 -74 -5 -17 -13 -24 -31 -24 -22 0 -25 -5 -26
-37 -1 -21 -1 -46 0 -55 2 -15 -6 -18 -48 -18 -45 0 -51 3 -57 24 -11 45 -1
71 29 74 26 3 27 5 27 63 0 56 -1 59 -24 59 -30 0 -41 27 -31 76 l6 34 -54 0
c-52 0 -55 1 -58 28 -2 15 -3 37 -1 50 3 22 7 23 80 20 l77 -3 0 -53z m645 3
c0 -54 0 -55 29 -55 20 0 31 -6 34 -17 4 -16 3 -386 -1 -405 -1 -5 -24 -8 -52
-8 l-50 0 0 220 0 220 -90 0 -90 0 0 43 c0 24 3 47 7 50 3 4 53 7 110 7 l103
0 0 -55z m555 -3 c0 -52 0 -52 32 -52 37 0 49 -22 39 -75 -6 -30 -4 -34 16
-37 39 -5 37 -98 -2 -98 -16 0 -19 -5 -14 -30 4 -16 3 -41 0 -55 -5 -20 -12
-25 -39 -25 l-32 0 0 -52 0 -53 -105 0 -105 0 0 53 0 52 -32 0 c-27 0 -34 5
-39 25 -3 14 -4 39 0 55 5 25 2 30 -14 30 -39 0 -41 93 -2 98 20 3 22 7 16 37
-10 53 2 75 39 75 32 0 32 1 29 40 -7 70 -5 71 110 68 l103 -3 0 -53z m384
-89 c-1 -194 -2 -183 21 -183 18 0 20 -7 20 -55 l0 -55 71 0 70 0 -3 -47 -3
-48 -107 -3 -108 -3 0 56 c0 54 0 55 -29 55 -20 0 -31 6 -34 18 -3 9 -5 98 -5
197 0 99 2 188 5 198 3 13 15 17 53 17 l50 0 -1 -147z m324 130 c5 -16 3 -496
-1 -515 -1 -5 -24 -8 -52 -8 l-50 0 0 55 c0 48 -2 55 -20 55 -17 0 -20 7 -20
50 0 43 3 50 20 50 19 0 20 7 20 165 l0 165 49 0 c39 0 51 -4 54 -17z m546
-33 l-2 -50 -119 0 -118 0 0 -60 0 -60 104 0 c117 0 124 -4 110 -75 -6 -34 -5
-35 25 -35 31 0 31 -1 31 -50 0 -49 -1 -50 -31 -50 -29 0 -30 -2 -24 -29 3
-16 3 -40 -1 -55 l-6 -26 -144 0 -144 0 0 50 0 50 120 0 120 0 0 60 0 60 -104
0 c-104 0 -104 0 -110 26 -4 15 -4 39 -1 55 6 27 5 29 -24 29 -30 0 -31 1 -31
50 0 49 1 50 31 50 29 0 30 2 24 29 -3 16 -3 40 1 55 l6 26 144 0 144 0 -1
-50z m601 13 c-3 -68 -1 -73 24 -73 30 0 34 -13 34 -105 1 -113 11 -105 -149
-105 l-139 0 0 -60 0 -60 114 0 113 0 2 -50 1 -51 -133 3 -132 3 0 53 0 52
-32 0 c-27 0 -34 5 -39 25 -3 14 -4 39 0 55 5 25 2 30 -14 30 -39 0 -41 93 -2
98 20 3 22 7 16 37 -10 53 2 75 39 75 32 0 32 1 29 40 -7 70 -8 70 138 70
l132 0 -2 -37z m-3108 -425 c2 -13 1 -36 -1 -51 l-3 -28 -77 3 -76 3 -3 48 -3
47 80 0 c75 0 80 -1 83 -22z m3358 -603 l0 -75 -2850 0 -2850 0 0 75 0 75
2850 0 2850 0 0 -75z m-2724 -511 c60 -16 141 -68 191 -121 71 -77 113 -201
113 -335 l0 -58 -34 0 -34 0 -4 103 c-3 88 -7 110 -32 162 -36 73 -99 135
-174 172 -50 25 -68 28 -152 28 -85 0 -101 -3 -154 -29 -73 -36 -136 -97 -172
-168 -24 -46 -29 -67 -32 -160 l-4 -108 -34 0 -34 0 0 70 c0 194 86 343 242
419 103 50 196 58 314 25z m506 -606 c49 -40 48 -31 48 -525 l0 -463 -29 -32
-29 -33 -622 0 -622 0 -29 33 -29 32 0 461 c0 488 1 501 47 528 28 16 1245 15
1265 -1z m-581 -3323 c93 -22 123 -176 47 -240 -112 -94 -270 0 -238 141 14
63 94 121 150 108 8 -2 27 -6 41 -9z"/>
<path d="M6570 6985 c0 -48 -3 -55 -19 -55 -22 0 -28 -24 -22 -77 2 -24 8 -33
22 -33 17 0 19 -8 19 -60 l0 -60 70 0 70 0 0 60 c0 53 2 60 20 60 18 0 20 7
20 55 0 48 -2 55 -20 55 -18 0 -20 7 -20 55 l0 55 -70 0 -70 0 0 -55z"/>
<path d="M8370 6980 l0 -60 90 0 90 0 0 60 0 60 -90 0 -90 0 0 -60z"/>
<path d="M5895 4670 c-148 -71 -194 -241 -103 -379 58 -88 173 -128 279 -97
188 54 245 292 103 428 -70 67 -195 89 -279 48z m120 -99 c3 -5 1 -12 -5 -16
-5 -3 -10 -21 -10 -38 0 -69 60 -105 112 -67 l28 21 0 -32 c0 -41 -35 -101
-70 -122 -88 -52 -210 18 -210 121 0 62 33 105 97 128 46 16 50 16 58 5z"/>
</g>
</svg>
